<svg width="160" viewBox="0 0 166 20" xmlns="http://www.w3.org/2000/svg" class="alert  svg-icon"><g fill="#000"><path d="M6.651 8.8c-1.116-.458-2.215-.769-3.095-1.492-.618-.51-.924-1.308-.877-2.264.09-1.834 1.463-3.051 3.513-2.945 1.679.086 2.754.926 3.22 2.494L11.9 4.18C11.245 1.684 9.245.165 6.269.011 2.764-.168.464 1.781.308 4.922.225 6.58.704 7.916 1.722 8.85c1.254 1.174 2.667 1.625 4.002 2.17 2.525 1.013 3.873 1.79 3.767 3.924-.086 1.736-1.508 2.924-3.755 2.809-1.706-.088-2.879-.862-3.376-2.137L0 16.141c.812 2.304 2.79 3.706 5.575 3.848 3.606.186 6.264-2 6.416-5.043.155-3.143-1.627-4.645-5.34-6.146M24 20h10v-2.239h-7.506v-6.39H34V9.18h-7.506V3.237H34V1H24zM50.42 10.197v-7.96h1.54c2.982 0 4.546 1.393 4.546 3.931 0 2.534-1.54 4.029-4.155 4.029h-1.93zM48 19h2.42v-6.542h2.03c3.91 0 6.55-2.586 6.55-6.191C59 2.537 56.385 0 51.984 0H48v19zM71 20h2.479v-8.68H83.52V20H86V1h-2.48v8.082H73.48V1H71zM105.975 17.73c-2.102 0-3.823-.681-5.164-2.042-1.469-1.46-2.228-3.449-2.228-5.69 0-2.267.759-4.23 2.228-5.69 1.316-1.336 3.088-2.04 5.164-2.04 2.101 0 3.848.704 5.19 2.04 1.468 1.484 2.253 3.423 2.253 5.69 0 2.241-.76 4.23-2.227 5.69-1.343 1.36-3.115 2.042-5.216 2.042M106 20c2.86 0 5.165-.884 7.012-2.674 1.952-1.888 2.988-4.408 2.988-7.328s-1.064-5.466-3.013-7.354C111.19.908 108.835 0 106 0s-5.19.908-6.987 2.644C97.063 4.532 96 7.864 96 10.784c0 2.92 1.039 4.654 2.988 6.542C100.835 19.116 103.165 20 106 20M128.594 9.75V2.237h1.757c3.407 0 5.11 1.294 5.11 3.607 0 2.489-1.729 3.906-4.978 3.906h-1.89zM126 19h2.594v-7.734l7.13 7.734H139l-7.05-7.386h.157c3.59 0 6.029-2.489 6.029-5.845 0-3.581-2.674-5.769-7.575-5.769H126v19zM153.248 12.358l3.063-7.618c.075-.197.277-.795.578-1.76.3 1.016.5 1.588.576 1.76l3.012 7.618h-7.23zM148 19h2.662l1.707-4.404h9.013L163.089 19H166l-8.083-19h-2.084L148 19z"></path></g></svg>
